 <svg xmlns="http://www.w3.org/2000/svg" width="200" height="200" viewBox="0 0 200 200" fill="none">
   <defs>
     <pattern id="pattern1" width="10%" height="10%" viewBox="0 0 100 100">
       <style>
         rect.sq { fill: red; }
       </style>

       <rect class="sq" x="0" y="0" width="5" height="5" />

       <rect class="sq" x="0" y="20" width="5" height="5" />
       <rect class="sq" x="5" y="5" width="15" height="15" />
       <rect class="sq" x="20" y="0" width="5" height="5" />


       <rect class="sq" x="5" y="45" width="15" height="15" />
       <rect class="sq" x="20" y="20" width="25" height="25" />
       <rect class="sq" x="45" y="5" width="15" height="15" />

       <rect class="sq" x="46" y="46" width="24" height="24" />
       <rect class="sq" x="70" y="70" width="15" height="15" />

       <rect class="sq" x="61" y="21" width="24" height="24" />
       <rect class="sq" x="21" y="61" width="24" height="24" />
     </pattern>

     <mask id="mask1" x="0" y="0" width="200" height="200">
       <rect x="0" y="0" width="200" height="200" fill="url(#pattern1)" />
     </mask>
   </defs>

   <rect
     x="0"
     y="0"
     width="100"
     height="100"
     stroke="green"
     stroke-width="50"
     fill="url(#pattern1)"
   />

   <rect
     x="100"
     y="100"
     width="100"
     height="100"
     stroke-width="50"
     stroke="url(#pattern1)"
   />
 </svg>
