<?xml version="1.0" encoding="UTF-8" standalone="no"?>
<!DOCTYPE svg PUBLIC "-//W3C//DTD SVG 1.1//EN" "http://www.w3.org/Graphics/SVG/1.1/DTD/svg11.dtd">
<svg width="100%" height="100%" viewBox="0 0 251 250" version="1.1" xmlns="http://www.w3.org/2000/svg" xmlns:xlink="http://www.w3.org/1999/xlink" xml:space="preserve" xmlns:serif="http://www.serif.com/" style="fill-rule:evenodd;clip-rule:evenodd;stroke-linecap:round;stroke-linejoin:round;stroke-miterlimit:1.5;">
    <g id="Artboard1" transform="matrix(1.00142,0,0,0.997586,-208.584,-265.541)">
        <rect x="208.288" y="266.183" width="249.659" height="250.605" style="fill:none;"/>
        <g transform="matrix(0.998581,0,0,1.00242,11.5455,11.5983)">
            <circle cx="322.029" cy="378.97" r="100.007" style="fill:rgb(82,82,82);stroke:rgb(102,102,102);stroke-width:1px;"/>
        </g>
        <g transform="matrix(0.965927,0,0,1.10075,201.52,261.482)">
            <path d="M151.774,39.932L151.774,53.65C151.774,57.413 148.305,60.469 144.033,60.469L128.551,60.469C124.279,60.469 120.81,57.413 120.81,53.65L120.81,39.932C120.81,36.168 124.279,33.113 128.551,33.113L144.033,33.113C148.305,33.113 151.774,36.168 151.774,39.932Z" style="fill:rgb(34,34,34);stroke:rgb(114,114,114);stroke-width:0.97px;"/>
        </g>
        <g transform="matrix(0.998581,0,0,1.00242,208.288,266.183)">
            <path d="M124.996,21.996C125.03,21.821 124.964,2.212 124.998,2.038" style="fill:white;stroke:rgb(102,102,102);stroke-width:1px;"/>
        </g>
        <g transform="matrix(0.905055,0.423571,-0.421949,0.908533,280.779,229.597)">
            <path d="M124.996,21.996C125.03,21.821 124.964,2.212 124.998,2.038" style="fill:white;stroke:rgb(102,102,102);stroke-width:1px;"/>
        </g>
        <g transform="matrix(0.904915,-0.423872,0.422249,0.908393,159.907,335.527)">
            <path d="M124.996,21.996C125.03,21.821 124.964,2.212 124.998,2.038" style="fill:white;stroke:rgb(102,102,102);stroke-width:1px;"/>
        </g>
    </g>
</svg>
